sfk_cyclingleg_x_-0.09_y_-0.05_states
version=1
nRows=4
nColumns=53
inDegrees=yes

# SIMM Motion File Header:
name sfk_cyclingleg_x_-0.09_y_-0.05_states
datacolumns 53
datarows 4
otherdata 1
range 0.23474578 0.23518734
endheader
time	/jointset/bb/crank_angle/value	/jointset/bb/crank_angle/speed	/jointset/spindle/pedal_angle_r/value	/jointset/spindle/pedal_angle_r/speed	/jointset/ground_pelvis/pelvis_tilt/value	/jointset/ground_pelvis/pelvis_tilt/speed	/jointset/ground_pelvis/pelvis_list/value	/jointset/ground_pelvis/pelvis_list/speed	/jointset/ground_pelvis/pelvis_rotation/value	/jointset/ground_pelvis/pelvis_rotation/speed	/jointset/ground_pelvis/pelvis_tx/value	/jointset/ground_pelvis/pelvis_tx/speed	/jointset/ground_pelvis/pelvis_ty/value	/jointset/ground_pelvis/pelvis_ty/speed	/jointset/ground_pelvis/pelvis_tz/value	/jointset/ground_pelvis/pelvis_tz/speed	/jointset/hip_r/hip_angle_r/value	/jointset/hip_r/hip_angle_r/speed	/jointset/hip_r/hip_adduction_r/value	/jointset/hip_r/hip_adduction_r/speed	/jointset/hip_r/hip_rotation_r/value	/jointset/hip_r/hip_rotation_r/speed	/jointset/knee_r/knee_angle_r/value	/jointset/knee_r/knee_angle_r/speed	/jointset/knee_r/tib_tx_r/value	/jointset/knee_r/tib_tx_r/speed	/jointset/knee_r/tib_ty_r/value	/jointset/knee_r/tib_ty_r/speed	/jointset/tib_pat_r/pat_angle_r/value	/jointset/tib_pat_r/pat_angle_r/speed	/jointset/tib_pat_r/pat_tx_r/value	/jointset/tib_pat_r/pat_tx_r/speed	/jointset/tib_pat_r/pat_ty_r/value	/jointset/tib_pat_r/pat_ty_r/speed	/jointset/ankle_r/ankle_angle_r/value	/jointset/ankle_r/ankle_angle_r/speed	/jointset/subtalar_r/subtalar_angle_r/value	/jointset/subtalar_r/subtalar_angle_r/speed	/jointset/mtp_r/mtp_angle_r/value	/jointset/mtp_r/mtp_angle_r/speed	/forceset/bifemlh_r/activation	/forceset/bifemlh_r/fiber_length	/forceset/bifemsh_r/activation	/forceset/bifemsh_r/fiber_length	/forceset/glut_max2_r/activation	/forceset/glut_max2_r/fiber_length	/forceset/vas_int_r/activation	/forceset/vas_int_r/fiber_length	/forceset/med_gas_r/activation	/forceset/med_gas_r/fiber_length	/forceset/tib_ant_r/activation	/forceset/tib_ant_r/fiber_length
      0.23474578	   -122.84539668	   -480.13863232	    137.81307358	    537.67189577	      0.00000000	      0.00000000	      0.00000000	     -0.00000000	     -0.00000000	     -0.00000000	     -0.09000000	      0.00000000	     -0.05000000	     -0.00000000	      0.00000000	      0.00000000	     50.68785066	   -209.51961402	      4.38370373	     -0.18059532	      0.95435454	     20.51492679	    -57.50940020	    245.73701306	      0.00462525	     -0.02038110	     -0.47520973	      0.07347871	     17.33967005	     -6.30094541	      0.04354597	      0.07159908	     -0.02301580	     -0.00908700	     22.20503170	     20.93772866	      0.00000000	     -0.00000000	     -0.00000000	     -0.00000000	     -0.00478140	      0.13093151	     -0.00478140	      0.16753281	     -0.00478140	      0.13873845	     -0.00478140	      0.12781338	     -0.00478140	      0.14679110	     -0.00478140	      0.11646611
      0.23489300	   -122.91608201	   -480.13863232	    137.89222255	    537.58586798	      0.00000000	      0.00000000	      0.00000000	     -0.00000000	     -0.00000000	     -0.00000000	     -0.09000000	      0.00000000	     -0.05000000	     -0.00000000	      0.00000000	      0.00000000	     50.65701030	   -209.45403592	      4.38367701	     -0.18235390	      0.95737407	     20.50614269	    -57.47323776	    245.53840117	      0.00462224	     -0.02041798	     -0.47519892	      0.07339432	     17.33874136	     -6.31541770	      0.04355651	      0.07152317	     -0.02301714	     -0.00908101	     22.20811768	     20.98602164	      0.00000000	     -0.00000000	     -0.00000000	     -0.00000000	     -0.00480036	      0.13092001	     -0.00480036	      0.16755337	     -0.00480036	      0.13871723	     -0.00480036	      0.12778703	     -0.00480036	      0.14680407	     -0.00480036	      0.11646353
      0.23504007	   -122.98669638	   -480.13863232	    137.97127939	    537.49952891	      0.00000000	      0.00000000	      0.00000000	     -0.00000000	     -0.00000000	     -0.00000000	     -0.09000000	      0.00000000	     -0.05000000	     -0.00000000	      0.00000000	      0.00000000	     50.62621057	   -209.38805420	      4.38365006	     -0.18410555	      0.96038928	     20.49730949	    -57.43714086	    245.33926531	      0.00461924	     -0.02045455	     -0.47518813	      0.07330984	     17.33781149	     -6.32984083	      0.04356702	      0.07144716	     -0.02301847	     -0.00907502	     22.21120765	     21.03412185	      0.00000000	     -0.00000000	     -0.00000000	     -0.00000000	     -0.00481929	      0.13090852	     -0.00481929	      0.16757389	     -0.00481929	      0.13869604	     -0.00481929	      0.12776072	     -0.00481929	      0.14681694	     -0.00481929	      0.11646095
      0.23518734	   -123.05740756	   -480.13863232	    138.05043185	    537.41267114	      0.00000000	      0.00000000	      0.00000000	     -0.00000000	     -0.00000000	     -0.00000000	     -0.09000000	      0.00000000	     -0.05000000	     -0.00000000	      0.00000000	      0.00000000	     50.59537838	   -209.32151053	      4.38362282	     -0.18585443	      0.96340731	     20.48840581	    -57.40102389	    245.13912955	      0.00461622	     -0.02049089	     -0.47517734	      0.07322506	     17.33687822	     -6.34424863	      0.04357754	      0.07137088	     -0.02301981	     -0.00906899	     22.21430893	     21.08214253	      0.00000000	     -0.00000000	     -0.00000000	     -0.00000000	     -0.00483825	      0.13089701	     -0.00483825	      0.16759443	     -0.00483825	      0.13867481	     -0.00483825	      0.12773439	     -0.00483825	      0.14682988	     -0.00483825	      0.11645836
